<svg version="1.0" xmlns="http://www.w3.org/2000/svg" width="24" height="24" viewBox="0 0 512 512">
  <path
    fill="currentColor"
    d="M443.6 34c-10.8 3.4-15.6 7.7-25.7 22.9-5.1 7.5-9.5 13.9-9.9 14.4-.3.4-3.9.1-7.9-.8-10.1-2.1-23.5-2-31 .4-5.8 1.8-16.1 7.5-16.1 9 0 .8 78.3 79.1 79.2 79.1 1.3 0 6.7-9.8 8.7-15.7 2.6-7.6 2.8-20.8.6-31.4-.9-4-1.4-7.3-1.3-7.4.2-.1 6.7-4.6 14.6-9.9 10.1-6.9 15.1-11 17.3-14.2 10.2-14.9 10.4-31 .4-40.9-7.2-7.3-17.4-9.2-28.9-5.5zM308 92.5 288.5 112l55.7 55.7 55.6 55.6 20.1-19.3 20.2-19.4-55.8-55.8C353.6 98.1 328.3 73 328 73c-.3 0-9.3 8.8-20 19.5zM245 123.7c-3.5 1.3-7.9 5-20.5 17.4l-16 15.8 18.3 18.4c20.5 20.6 20.8 21.3 14.8 27.3-6.1 6.1-6.8 5.7-27.3-14.8L196 169.5 169.5 196 143 222.5l18 18c16.6 16.6 18 18.3 18 21.6 0 5.4-6.2 10.8-10.7 9.2-1-.3-9.9-8.6-19.8-18.4l-18-17.9-26.5 26.5L77.5 288l18.3 18.3c12.9 13 18.2 19 18.2 20.6 0 5.2-5 10.1-10.3 10.1-1.5 0-7.9-5.7-20.5-18.3l-18.3-18.2L49.6 316c-13.2 13.4-15.4 16.1-16.6 20.2-1.4 5.3-.8 11.3 1.6 16.2C36.7 356.3 152 472.1 157.9 476c5.4 3.6 11.6 4.6 17.9 3 4.4-1.2 11.3-7.9 107-103.4 63.5-63.4 103.1-103.6 104.4-106.1 2.6-5 3.5-15.7 1.8-21.1-1-3.2-12.6-15.3-60.4-63.3-40.1-40.2-60.4-59.9-63.1-61.2-4.9-2.3-14.2-2.4-20.5-.2z"/>
</svg>
