<svg version="1.0" xmlns="http://www.w3.org/2000/svg" width="24" height="24" viewBox="0 0 200 200">
  <path
    fill="currentColor"
    d="M90.2 1.4C66.9 9 59.6 38.6 76.9 55.9c5 5 10 7.6 17.4 9 23.1 4.2 43.1-17.1 37.3-39.7-2.7-10.5-9.1-18.3-18.5-22.5-5.8-2.6-17-3.2-22.9-1.3zM68.1 76.1c-9.7 2.8-17.3 11.1-26.8 29.2-17.7 33.6-20.8 49.2-12.8 65.3 4.6 9.4 11 15.3 22.8 21 18.5 8.9 37.7 10.6 50.3 4.4 9.6-4.7 13.1-12.7 8.8-20-3.2-5.2-6.5-6.3-22.4-7.1-11.8-.5-16-1.2-22.5-3.3-8.1-2.7-13.5-5.9-12.3-7.2.4-.3 4.3-1 8.6-1.4 8.7-.9 14.9-3.1 15.8-5.5.4-.8-.5-4.3-2-7.6-4.8-11-4.4-18.3 1-20.8 6.1-2.7 9.3-.8 15.4 9.4 9.5 15.7 17 21.4 29.2 22.3l6.8.5-4.5 4.8c-7.5 8-8.2 13.9-2.4 19.5 2.9 2.7 3.5 2.9 11.2 2.9 7.4-.1 8.8-.4 14.7-3.5 3.8-2.1 9.6-6.6 14-11 15.2-14.9 18.4-29.2 10.7-47-4.6-10.8-17.4-31.6-22.7-37.1-8.5-8.6-9.9-8.9-46.9-8.8-16.8 0-32.1.5-34 1zm67.5 31.7c18.7 9.6 15.1 37.2-5.6 42.2-15.5 3.7-29.9-10.4-26.9-26.5 2.7-14.7 19.1-22.6 32.5-15.7z"/>
</svg>
